<?xml version="1.0" encoding="UTF-8"?>
<svg xmlns="http://www.w3.org/2000/svg"
     width="61mm" height="96mm"
     viewBox="0 0 61 96">
<defs>
  <style>
    @font-face {
      font-family: 'Aeonik';
      src: local('Aeonik'), local('Aeonik-Regular');
    }
    text { font-family: 'Aeonik', 'Avenir Next', 'Calibri', sans-serif; }
  </style>
</defs>
<rect x="0" y="0" width="61" height="96" fill="#FFFFFF"/>
<rect x="0" y="0" width="4" height="96" fill="#2978FF"/>
<g transform="translate(9,10) scale(0.04761904761904762,0.047619047619047616) translate(-177,-100)">
<rect x="177.56" y="102.75" width="24.31" height="97.25" fill="#263338"/>
<polygon points="526.05 135.16 420.7 135.16 420.7 102.75 396.38 102.75 396.38 200 420.7 200 420.7 159.48 526.05 159.48 526.05 200 550.37 200 550.37 102.75 526.05 102.75 526.05 135.16" fill="#263338"/>
<rect x="566.58" y="102.75" width="24.31" height="97.25" fill="#263338"/>
<polygon points="902.44 200 846.29 102.75 820.81 102.75 818.4 102.75 792.92 102.75 736.77 200 764.66 200 819.63 102.75 874.54 200 902.44 200" fill="#263338"/>
<path d="M216.85,150.47v1.8c0,26.36,21.37,47.73,47.73,47.73h115.6s0-20.71,0-20.71H245.17c-2.21,0-4-1.79-4-4v-47.9c0-2.21,1.79-4,4-4h135.01v-20.65h-115.6c-26.36,0-47.73,21.37-47.73,47.73Z" fill="#263338"/>
<polygon points="607.1 102.75 607.1 123.46 671.93 123.46 671.93 200 696.25 200 696.25 123.46 761.08 123.46 761.08 102.75 607.1 102.75" fill="#263338"/>
<polygon points="882.66 105.46 883.3 105.46 886.58 118.65 891.07 118.65 894.42 105.46 895.06 105.46 895.06 118.65 897.91 118.65 897.91 102.83 892.43 102.83 889.15 116.01 888.58 116.01 885.23 102.83 879.74 102.83 879.74 118.65 882.66 118.65 882.66 105.46" fill="#263338"/>
<polygon points="869.41 118.65 872.33 118.65 872.33 105.46 877.6 105.46 877.6 102.83 864.06 102.83 864.06 105.46 869.41 105.46 869.41 118.65" fill="#263338"/>
</g><g transform="translate(9,16) scale(0.0059259259259259265,0.0059259259259259265) translate(-300,-270)">
<g transform="rotate(90, 540, 540)">
<path d="M391.7,290h-74L462,540L317.7,790h74l113.2-196c19.3-33.4,19.3-74.5,0-107.9L391.7,290L391.7,290z" fill="#2978FF"/>
<path d="M688.3,790h74L618,540l144.3-250h-74L575.1,486c-19.3,33.4-19.3,74.5,0,107.9L688.3,790L688.3,790z" fill="#2978FF"/>
</g>
</g><text x="12.5" y="18.5" font-size="2.6" fill="#788F9C" letter-spacing="0.25" font-weight="500">SEPARATION TECHNOLOGIES</text>
<text x="9" y="36" font-size="6" font-weight="600" fill="#263338" letter-spacing="0.1">Prakorn</text>
<text x="9" y="42.5" font-size="6" font-weight="600" fill="#263338" letter-spacing="0.1">Makjamroen</text>
<text x="9" y="47" font-size="5" font-weight="500" fill="#788F9C">ประกรณ์ เมฆจำเริญ</text>
<text x="9" y="52.5" font-size="3.2" fill="#788F9C" letter-spacing="0.2">BUSINESS ADVISOR</text>
<text x="9" y="56.3" font-size="3.2" fill="#788F9C">ที่ปรึกษาธุรกิจ</text>
<line x1="9" y1="59.5" x2="16" y2="59.5" stroke="#2978FF" stroke-width="0.3" opacity="0.5"/>
<text x="9" y="63.5" font-size="3.2" fill="#263338"><tspan fill="#2978FF" font-weight="600" letter-spacing="0.2">E</tspan>   prakorn@ichitathailand.com</text>
<text x="9" y="67.5" font-size="3.2" fill="#263338"><tspan fill="#2978FF" font-weight="600" letter-spacing="0.2">T</tspan>   +66 81 789 2465</text>
<text x="9" y="71.5" font-size="3.2" fill="#263338"><tspan fill="#2978FF" font-weight="600" letter-spacing="0.2">W</tspan>   ichita.co.th</text>
<text x="9" y="76.5" font-size="2.8" fill="#788F9C">399/75 Prachachuen Rd., Soi Pongpetchnivet,</text>
<text x="9" y="79.7" font-size="2.8" fill="#788F9C">Jatujak, Bangkok 10900, Thailand</text>
<line x1="9" y1="81.7" x2="19" y2="81.7" stroke="#CFD9DB" stroke-width="0.2" opacity="0.6"/>
<text x="9" y="84.5" font-size="3.2" fill="#788F9C">399/75 ซอยพงษ์เพชรนิเวศน์ ถนนประชาชื่น</text>
<text x="9" y="88.0" font-size="3.2" fill="#788F9C">เขตจตุจักร กรุงเทพฯ 10900</text>
<line x1="-5" y1="3" x2="0" y2="3" stroke="black" stroke-width="0.25"/>
<line x1="3" y1="-5" x2="3" y2="0" stroke="black" stroke-width="0.25"/>
<line x1="61" y1="3" x2="66" y2="3" stroke="black" stroke-width="0.25"/>
<line x1="58" y1="-5" x2="58" y2="0" stroke="black" stroke-width="0.25"/>
<line x1="-5" y1="93" x2="0" y2="93" stroke="black" stroke-width="0.25"/>
<line x1="3" y1="96" x2="3" y2="101" stroke="black" stroke-width="0.25"/>
<line x1="61" y1="93" x2="66" y2="93" stroke="black" stroke-width="0.25"/>
<line x1="58" y1="96" x2="58" y2="101" stroke="black" stroke-width="0.25"/>
</svg>